<svg width="235" height="132" viewBox="0 0 235 132" fill="none" xmlns="http://www.w3.org/2000/svg">
<g clip-path="url(#clip0_71_9)">
<rect width="235" height="132" fill="white"/>
<g clip-path="url(#clip1_71_9)">
<path d="M102 50V82H134V50H102ZM112.197 57.504C113.995 57.504 115.453 58.9622 115.453 60.7609C115.453 62.5596 113.995 64.0177 112.197 64.0177C110.398 64.0177 108.94 62.5596 108.94 60.7609C108.94 58.9622 110.398 57.504 112.197 57.504ZM130.401 74.1578C130.289 74.3656 130.072 74.496 129.835 74.496H106.165C105.929 74.496 105.712 74.3668 105.599 74.159C105.487 73.9511 105.498 73.6984 105.628 73.5012L109.768 67.1925C110.043 66.7741 110.497 66.5072 110.996 66.4718C111.496 66.4364 111.983 66.6359 112.314 67.0116L115.17 70.2482L120.345 62.3735C120.641 61.9224 121.145 61.65 121.685 61.6494C122.225 61.6489 122.729 61.9202 123.026 62.3707L130.372 73.4995C130.502 73.6973 130.513 73.95 130.401 74.1578Z" fill="#61646F"/>
</g>
</g>
<defs>
<clipPath id="clip0_71_9">
<rect width="235" height="132" fill="white"/>
</clipPath>
<clipPath id="clip1_71_9">
<rect width="32" height="32" fill="white" transform="translate(102 50)"/>
</clipPath>
</defs>
</svg>
